<svg id="Layer_1" data-name="Layer 1" xmlns="http://www.w3.org/2000/svg" viewBox="0 0 395.14 80.25"><defs><style>.cls-1{font-size:74.66px;fill:#231f20;font-family:ArialRoundedMTBold, Arial Rounded MT Bold;}</style></defs><path d="M140.56,398.22h-1.34c-4.24,0-8.48,0-12.72,0a12,12,0,0,1-12.23-9.87c-.06-.23-.1-.47-.17-.83-1.8,0-3.59,0-5.37,0-1,0-1.82-.21-1.92-1.39-.07-1,.61-1.48,1.93-1.5h5.39a20.33,20.33,0,0,1,3.28-9.36,19.72,19.72,0,0,1,16.61-9c3.34-.08,6.7.19,10-.11a91.49,91.49,0,0,0,9.22-1.68,8.73,8.73,0,0,0,1.23-.52,15.3,15.3,0,0,1-1.86-1.42,1.78,1.78,0,0,1-.06-2.52,1.76,1.76,0,0,1,2.61.07c.49.44.93.92,1.38,1.38,1.26,1.29,1.26,1.29,3,0-.94-.87-1.88-1.7-2.76-2.58s-1-2.06-.26-2.8,1.83-.68,2.8.3,2.07,2.17,3.13,3.29l1.83-1.43L160.65,355a1.9,1.9,0,0,1-.59-2.31,1.78,1.78,0,0,1,3-.35c1.19,1.16,2.31,2.4,3.56,3.71l1.49-1.66c-1.14-1.06-2.32-2.12-3.45-3.23s-1.09-2.14-.3-2.89,1.83-.63,2.81.35,2.21,2.27,3.47,3.57c1.22-1.27,2.3-2.42,3.41-3.54,1.57-1.59,3.14-3.19,4.76-4.75a9.66,9.66,0,0,1,13.57-.16c2.21,2.05,4.29,4.24,6.43,6.37,6.16,6.13,14.86,6.12,21,0,1.15-1.15,2.28-2.32,3.49-3.42a7.89,7.89,0,0,1,9-1.55,7.72,7.72,0,0,1,4.94,7.39c.1,8.47.09,16.95,0,25.42a10,10,0,0,1-9.26,9.95,135.45,135.45,0,0,1-14.53-.14,14.37,14.37,0,0,1-9.2-4.38c-3.31-3.21-6.52-6.5-9.82-9.72a6.58,6.58,0,0,0-9.63-.08c-7.08,7-14.09,14-21.12,21.07-.14.14-.26.3-.58.7h66.18c6.36,0,12.72,0,19.08,0a5.87,5.87,0,0,1,5.1,9,5.78,5.78,0,0,1-5.33,2.86H226.35c-1,0-1.75-.39-1.71-1.46s.76-1.41,1.77-1.4h21a7.92,7.92,0,0,0,1.82-.18,3,3,0,0,0,2.18-3.14,3,3,0,0,0-2.68-2.74,10.11,10.11,0,0,0-1.23,0q-43,0-86,0a3.15,3.15,0,0,0-2.55,1.06c-1.48,1.57-3.05,3.06-4.58,4.58a7.94,7.94,0,0,1-13.76-5C140.65,398.65,140.61,398.49,140.56,398.22ZM117,384.64h28.2c1.88,0,3.39.65,4.13,2.46a4,4,0,0,1-1.15,4.66c-1,1-2,1.94-2.94,2.94C143,397,143,400,145,402.09s5.14,1.93,7.4-.33q14.88-14.85,29.75-29.72c4.44-4.45,10.26-4.48,14.71,0l8.81,8.82a12.61,12.61,0,0,0,8.37,4.12c4.64.22,9.3.25,13.93,0a7,7,0,0,0,6.31-7c.07-8.43.05-16.86,0-25.29a5.06,5.06,0,0,0-3.27-5,5.23,5.23,0,0,0-6,1.18c-1.12,1.07-2.18,2.2-3.29,3.28-7.43,7.2-17.77,7.15-25.12-.12-2.06-2-4.07-4.12-6.15-6.13a6.69,6.69,0,0,0-9.12-.47c-3,2.75-5.71,5.8-8.59,8.77.13.14.37.41.62.67s.59.56.86.87a1.76,1.76,0,0,1,.09,2.52,1.71,1.71,0,0,1-2.6,0,18.29,18.29,0,0,1-1.47-1.78L168.63,358c.63.6,1.16,1.05,1.64,1.55a1.79,1.79,0,0,1,.17,2.69,1.75,1.75,0,0,1-2.69-.19,16.92,16.92,0,0,1-1.39-1.83l-.39.33-1.52,1.26c.44.33.81.58,1.14.88a9.2,9.2,0,0,1,1,1,1.65,1.65,0,0,1,0,2.33,1.62,1.62,0,0,1-2.4.2,18.52,18.52,0,0,1-1.49-1.45c-1.26-1.27-1.29-1.27-2.79.13.83.79,1.68,1.55,2.48,2.35a1.82,1.82,0,0,1,.3,2.69c-.77.83-1.82.79-2.8-.15s-1.83-1.74-2.67-2.68a1.4,1.4,0,0,0-1.8-.41,31.5,31.5,0,0,1-10,2.23c-3.82.13-7.66.12-11.49.18a16.72,16.72,0,0,0-11.16,4.27A17.13,17.13,0,0,0,117,384.64Zm0,2.94c.08.44.12.8.21,1.14a9,9,0,0,0,8.32,6.58c5,.08,9.94,0,14.9,0a1.48,1.48,0,0,0,.95-.35c1.51-1.64,3-3.3,4.42-5a7.19,7.19,0,0,0,.81-1.75,5.71,5.71,0,0,0-1.8-.66c-8.88,0-17.75,0-26.63,0C117.92,387.52,117.56,387.56,117.09,387.58Z" transform="translate(-106.81 -334.84)"/><text class="cls-1" transform="translate(156.18 64.5)">KICKS</text></svg>