<svg id="Layer_1" data-name="Layer 1" xmlns="http://www.w3.org/2000/svg" viewBox="0 0 532.06 238.55"><path d="M154.11,514.42h-4.84c-15.29,0-30.58.08-45.87,0-22.63-.12-39.2-13.55-44.1-35.6-.19-.84-.34-1.69-.61-3-6.5,0-12.94-.06-19.37,0-3.62,0-6.56-.76-6.9-5-.28-3.47,2.18-5.37,6.93-5.41,6.43-.05,12.86,0,19.46,0,1.52-12.48,4.94-23.8,11.81-33.77,14.43-20.94,34.44-31.87,59.9-32.45,12.06-.27,24.19.68,36.15-.39,11.17-1,22.17-3.92,33.24-6,.93-.18,1.79-.75,4.43-1.9-2.77-2.07-5-3.33-6.69-5.1a6.43,6.43,0,0,1-.23-9.12c2.61-2.68,6.27-2.63,9.44.26,1.74,1.58,3.32,3.33,5,5,4.54,4.62,4.54,4.62,10.66,0-3.39-3.15-6.77-6.14-10-9.32-3.41-3.4-3.68-7.4-.94-10.09s6.6-2.44,10.09,1.07c3.81,3.84,7.47,7.84,11.3,11.88l6.6-5.17c-4.59-4.14-8.81-7.92-13-11.74-2.53-2.3-3.53-5.09-2.13-8.33,1.79-4.12,7.08-4.83,10.7-1.28,4.29,4.2,8.33,8.66,12.83,13.38l5.4-6c-4.12-3.85-8.38-7.66-12.46-11.66-3.61-3.55-3.92-7.72-1-10.43s6.58-2.25,10.11,1.26c4,4,8,8.19,12.52,12.89,4.38-4.56,8.28-8.72,12.28-12.77,5.68-5.75,11.35-11.51,17.18-17.11,14.09-13.53,34.64-13.87,49-.59,8,7.4,15.45,15.31,23.16,23C386.3,363,417.68,363,440,340.85c4.17-4.14,8.24-8.39,12.58-12.35,9.54-8.71,20.64-10.55,32.34-5.57,11.46,4.87,17.65,14.3,17.8,26.64.35,30.55.31,61.11.06,91.67-.16,18.82-14.55,34.88-33.37,35.87a480,480,0,0,1-52.42-.5c-12.85-.72-23.95-6.84-33.18-15.79-11.92-11.56-23.52-23.45-35.4-35.05-10.3-10.07-24.5-10.39-34.74-.29-25.54,25.17-50.8,50.62-76.16,76-.51.5-.92,1.1-2.11,2.54H474c22.94,0,45.88-.15,68.81.06,17.13.16,27.12,17.9,18.39,32.34-4.33,7.17-10.91,10.35-19.22,10.34q-34,0-67.93,0H463.5c-3.55,0-6.31-1.39-6.17-5.25s2.75-5.08,6.4-5.08q37.93.09,75.87,0a26.06,26.06,0,0,0,6.55-.64A10.61,10.61,0,0,0,554,524.44a11,11,0,0,0-9.67-9.89,40.27,40.27,0,0,0-4.4-.13q-155.06,0-310.12-.08a11.49,11.49,0,0,0-9.22,3.81c-5.32,5.68-11,11-16.5,16.55-8.7,8.69-19,11.71-30.66,7.5-11.81-4.26-17.91-13.25-19-25.7C154.43,515.94,154.29,515.4,154.11,514.42Zm-84.82-49h6.46q47.63,0,95.26,0c6.75,0,12.2,2.32,14.87,8.86s.73,12-4.14,16.81q-5.37,5.24-10.6,10.59c-8.07,8.31-8.4,19.08-.86,26.66,7.39,7.44,18.52,7,26.7-1.19Q250.64,473.61,304.24,420c16-16.05,37-16.16,53.05-.1q15.88,15.92,31.78,31.81c8.38,8.4,18.34,14.31,30.19,14.87,16.71.78,33.52.88,50.24.09,12.6-.59,22.66-12.23,22.76-25.11.23-30.4.16-60.8.07-91.2,0-8.42-4-14.78-11.8-18s-15.32-1.73-21.56,4.25c-4,3.86-7.87,7.93-11.88,11.81-26.78,26-64.09,25.82-90.59-.43-7.42-7.34-14.69-14.83-22.18-22.08-9.22-8.92-23.74-10.15-32.9-1.71-10.77,9.93-20.57,20.91-31,31.63.49.52,1.35,1.48,2.24,2.41s2.13,2,3.1,3.14c2.67,3,2.78,6.48.33,9.08-2.61,2.78-6.28,2.92-9.38,0a65.76,65.76,0,0,1-5.28-6.45l-6.12,5.48c2.28,2.13,4.18,3.76,5.91,5.56,3.2,3.34,3.38,7,.61,9.7s-6.45,2.66-9.7-.68a63.61,63.61,0,0,1-5-6.58l-1.39,1.17-5.5,4.54c1.58,1.21,2.92,2.11,4.11,3.17a32.22,32.22,0,0,1,3.71,3.77c2.23,2.77,2.32,5.76-.09,8.39-2.55,2.79-5.68,3.06-8.67.71A61.33,61.33,0,0,1,234,394c-4.55-4.58-4.66-4.59-10.06.49,3,2.82,6,5.56,8.95,8.46,3.3,3.29,3.63,6.95,1.07,9.7-2.78,3-6.55,2.84-10.08-.54-3.28-3.16-6.6-6.3-9.64-9.68-2-2.19-3.72-2.53-6.51-1.47-11.58,4.42-23.53,7.58-36,8-13.8.48-27.62.46-41.43.68C115,409.87,101.5,414.85,90,425,78.11,435.59,71.34,448.84,69.29,465.43ZM69.47,476c.3,1.59.44,2.87.78,4.11,3.7,13.42,16.08,23.5,30,23.73,17.91.29,35.82.12,53.73.06a5.14,5.14,0,0,0,3.43-1.25c5.43-5.93,10.8-11.9,15.93-18.08,1.43-1.72,2-4.18,2.93-6.3-2.17-.83-4.34-2.36-6.51-2.37-32-.16-64-.11-96-.1C72.46,475.84,71.16,476,69.47,476Z" transform="translate(-32.4 -308.18)"/></svg>